# xmcd CD database file
#
# Track frame offsets:
#	150
#	15602
#	36435
#	50077
#	63502
#	81882
#	96127
#	110140
#	124062
#	138737
#	154532
#
# Disc length: 2321 seconds
#
# Revision: 0
# Processed by: cddbd v1.4PL0 Copyright (c) Steve Scherf et al.
# Submitted via: CDex 1.50
#
DISCID=9a090f0b
DTITLE=Ethel Ennis - sings Lullabies for Losers
DYEAR=1955
DGENRE=Jazz
TTITLE0=Love for Sale from "The New Yorkers"
TTITLE1=Dreamer - Dreamer
TTITLE2=Blue Prelude
TTITLE3=Off Shore
TTITLE4=Casually
TTITLE5=Hey Jacques
TTITLE6=Lullaby for Losers
TTITLE7=Say It Ain't So, Joe
TTITLE8=You'd Better Go Now
TTITLE9=Blue Willow
TTITLE10=Bon Voyage
EXTD=YEAR: 1955
EXTT0=
EXTT1=
EXTT2=
EXTT3=
EXTT4=
EXTT5=
EXTT6=
EXTT7=
EXTT8=
EXTT9=
EXTT10=
PLAYORDER=
